<mxfile host="Electron" modified="2024-05-24T20:25:26.980Z" agent="Mozilla/5.0 (Windows NT 10.0; Win64; x64) AppleWebKit/537.36 (KHTML, like Gecko) draw.io/21.7.5 Chrome/114.0.5735.289 Electron/25.8.1 Safari/537.36" etag="EEYqIUrXme6RVO5Kmth1" version="21.7.5" type="device">
  <diagram id="C5RBs43oDa-KdzZeNtuy" name="Service catalog">
    <mxGraphModel dx="1434" dy="886" grid="1" gridSize="10" guides="1" tooltips="1" connect="1" arrows="1" fold="1" page="0" pageScale="1" pageWidth="827" pageHeight="1169" math="0" shadow="0">
      <root>
        <mxCell id="WIyWlLk6GJQsqaUBKTNV-0" />
        <mxCell id="WIyWlLk6GJQsqaUBKTNV-1" parent="WIyWlLk6GJQsqaUBKTNV-0" />
        <mxCell id="xgMd-r7XzJL5BxvF1ZXr-2" style="edgeStyle=none;curved=1;rounded=0;orthogonalLoop=1;jettySize=auto;html=1;exitX=0.5;exitY=1;exitDx=0;exitDy=0;entryX=0.5;entryY=0;entryDx=0;entryDy=0;fontSize=12;startSize=8;endSize=8;" parent="WIyWlLk6GJQsqaUBKTNV-1" source="xgMd-r7XzJL5BxvF1ZXr-0" target="xgMd-r7XzJL5BxvF1ZXr-1" edge="1">
          <mxGeometry relative="1" as="geometry" />
        </mxCell>
        <mxCell id="xgMd-r7XzJL5BxvF1ZXr-0" value="Landing/&lt;br&gt;Home" style="ellipse;whiteSpace=wrap;html=1;aspect=fixed;fontSize=16;" parent="WIyWlLk6GJQsqaUBKTNV-1" vertex="1">
          <mxGeometry x="510" y="100" width="80" height="80" as="geometry" />
        </mxCell>
        <mxCell id="xgMd-r7XzJL5BxvF1ZXr-4" style="edgeStyle=orthogonalEdgeStyle;rounded=0;orthogonalLoop=1;jettySize=auto;html=1;exitX=1;exitY=0.5;exitDx=0;exitDy=0;entryX=0.5;entryY=1;entryDx=0;entryDy=0;fontSize=12;startSize=8;endSize=8;" parent="WIyWlLk6GJQsqaUBKTNV-1" source="xgMd-r7XzJL5BxvF1ZXr-1" target="xgMd-r7XzJL5BxvF1ZXr-3" edge="1">
          <mxGeometry relative="1" as="geometry" />
        </mxCell>
        <mxCell id="xgMd-r7XzJL5BxvF1ZXr-5" value="No" style="edgeLabel;html=1;align=center;verticalAlign=middle;resizable=0;points=[];fontSize=16;" parent="xgMd-r7XzJL5BxvF1ZXr-4" vertex="1" connectable="0">
          <mxGeometry x="-0.1687" y="1" relative="1" as="geometry">
            <mxPoint as="offset" />
          </mxGeometry>
        </mxCell>
        <mxCell id="xgMd-r7XzJL5BxvF1ZXr-7" style="edgeStyle=none;curved=1;rounded=0;orthogonalLoop=1;jettySize=auto;html=1;exitX=0.5;exitY=1;exitDx=0;exitDy=0;entryX=0.5;entryY=0;entryDx=0;entryDy=0;fontSize=12;startSize=8;endSize=8;" parent="WIyWlLk6GJQsqaUBKTNV-1" source="xgMd-r7XzJL5BxvF1ZXr-1" target="xgMd-r7XzJL5BxvF1ZXr-6" edge="1">
          <mxGeometry relative="1" as="geometry" />
        </mxCell>
        <mxCell id="xgMd-r7XzJL5BxvF1ZXr-8" value="Yes" style="edgeLabel;html=1;align=center;verticalAlign=middle;resizable=0;points=[];fontSize=16;" parent="xgMd-r7XzJL5BxvF1ZXr-7" vertex="1" connectable="0">
          <mxGeometry x="-0.1143" y="2" relative="1" as="geometry">
            <mxPoint as="offset" />
          </mxGeometry>
        </mxCell>
        <mxCell id="xgMd-r7XzJL5BxvF1ZXr-1" value="Is user&lt;br&gt;logged in" style="rhombus;whiteSpace=wrap;html=1;fontSize=16;" parent="WIyWlLk6GJQsqaUBKTNV-1" vertex="1">
          <mxGeometry x="490" y="220" width="120" height="120" as="geometry" />
        </mxCell>
        <mxCell id="xgMd-r7XzJL5BxvF1ZXr-3" value="Log user in" style="shape=process;whiteSpace=wrap;html=1;backgroundOutline=1;fontSize=16;" parent="WIyWlLk6GJQsqaUBKTNV-1" vertex="1">
          <mxGeometry x="760" y="110" width="120" height="60" as="geometry" />
        </mxCell>
        <mxCell id="xgMd-r7XzJL5BxvF1ZXr-10" style="edgeStyle=none;curved=1;rounded=0;orthogonalLoop=1;jettySize=auto;html=1;exitX=0.5;exitY=1;exitDx=0;exitDy=0;entryX=0.5;entryY=0;entryDx=0;entryDy=0;fontSize=12;startSize=8;endSize=8;" parent="WIyWlLk6GJQsqaUBKTNV-1" source="xgMd-r7XzJL5BxvF1ZXr-6" target="xgMd-r7XzJL5BxvF1ZXr-9" edge="1">
          <mxGeometry relative="1" as="geometry" />
        </mxCell>
        <mxCell id="xgMd-r7XzJL5BxvF1ZXr-6" value="Retrieve service catalogs" style="shape=process;whiteSpace=wrap;html=1;backgroundOutline=1;fontSize=16;" parent="WIyWlLk6GJQsqaUBKTNV-1" vertex="1">
          <mxGeometry x="450" y="410" width="200" height="60" as="geometry" />
        </mxCell>
        <mxCell id="xgMd-r7XzJL5BxvF1ZXr-13" style="edgeStyle=none;curved=1;rounded=0;orthogonalLoop=1;jettySize=auto;html=1;exitX=0;exitY=0.5;exitDx=0;exitDy=0;entryX=1;entryY=0.5;entryDx=0;entryDy=0;fontSize=12;startSize=8;endSize=8;" parent="WIyWlLk6GJQsqaUBKTNV-1" source="xgMd-r7XzJL5BxvF1ZXr-9" target="xgMd-r7XzJL5BxvF1ZXr-12" edge="1">
          <mxGeometry relative="1" as="geometry" />
        </mxCell>
        <mxCell id="xgMd-r7XzJL5BxvF1ZXr-14" value="None" style="edgeLabel;html=1;align=center;verticalAlign=middle;resizable=0;points=[];fontSize=16;" parent="xgMd-r7XzJL5BxvF1ZXr-13" vertex="1" connectable="0">
          <mxGeometry x="0.1385" y="-1" relative="1" as="geometry">
            <mxPoint as="offset" />
          </mxGeometry>
        </mxCell>
        <mxCell id="xgMd-r7XzJL5BxvF1ZXr-16" style="edgeStyle=none;curved=1;rounded=0;orthogonalLoop=1;jettySize=auto;html=1;exitX=1;exitY=0.5;exitDx=0;exitDy=0;entryX=0;entryY=0.5;entryDx=0;entryDy=0;fontSize=12;startSize=8;endSize=8;" parent="WIyWlLk6GJQsqaUBKTNV-1" source="xgMd-r7XzJL5BxvF1ZXr-9" target="xgMd-r7XzJL5BxvF1ZXr-15" edge="1">
          <mxGeometry relative="1" as="geometry" />
        </mxCell>
        <mxCell id="xgMd-r7XzJL5BxvF1ZXr-17" value="1" style="edgeLabel;html=1;align=center;verticalAlign=middle;resizable=0;points=[];fontSize=16;" parent="xgMd-r7XzJL5BxvF1ZXr-16" vertex="1" connectable="0">
          <mxGeometry x="-0.2167" relative="1" as="geometry">
            <mxPoint as="offset" />
          </mxGeometry>
        </mxCell>
        <mxCell id="xgMd-r7XzJL5BxvF1ZXr-19" style="edgeStyle=orthogonalEdgeStyle;rounded=0;orthogonalLoop=1;jettySize=auto;html=1;exitX=0.5;exitY=1;exitDx=0;exitDy=0;entryX=0.5;entryY=0;entryDx=0;entryDy=0;fontSize=12;startSize=8;endSize=8;" parent="WIyWlLk6GJQsqaUBKTNV-1" source="xgMd-r7XzJL5BxvF1ZXr-9" target="xgMd-r7XzJL5BxvF1ZXr-18" edge="1">
          <mxGeometry relative="1" as="geometry" />
        </mxCell>
        <mxCell id="xgMd-r7XzJL5BxvF1ZXr-20" value="Many" style="edgeLabel;html=1;align=center;verticalAlign=middle;resizable=0;points=[];fontSize=16;" parent="xgMd-r7XzJL5BxvF1ZXr-19" vertex="1" connectable="0">
          <mxGeometry x="-0.1556" relative="1" as="geometry">
            <mxPoint as="offset" />
          </mxGeometry>
        </mxCell>
        <mxCell id="xgMd-r7XzJL5BxvF1ZXr-9" value="Does&amp;nbsp;user&lt;br&gt;have only one&lt;br&gt;service catalog" style="rhombus;whiteSpace=wrap;html=1;fontSize=16;" parent="WIyWlLk6GJQsqaUBKTNV-1" vertex="1">
          <mxGeometry x="460" y="520" width="180" height="180" as="geometry" />
        </mxCell>
        <mxCell id="xgMd-r7XzJL5BxvF1ZXr-12" value="Should be display? &lt;br&gt;&quot;You do not have any service catalog&quot;" style="shape=process;whiteSpace=wrap;html=1;backgroundOutline=1;fontSize=16;" parent="WIyWlLk6GJQsqaUBKTNV-1" vertex="1">
          <mxGeometry x="200" y="530" width="140" height="160" as="geometry" />
        </mxCell>
        <mxCell id="xgMd-r7XzJL5BxvF1ZXr-22" style="edgeStyle=none;curved=1;rounded=0;orthogonalLoop=1;jettySize=auto;html=1;exitX=1;exitY=0.5;exitDx=0;exitDy=0;entryX=0;entryY=0.5;entryDx=0;entryDy=0;fontSize=12;startSize=8;endSize=8;" parent="WIyWlLk6GJQsqaUBKTNV-1" source="xgMd-r7XzJL5BxvF1ZXr-15" target="xgMd-r7XzJL5BxvF1ZXr-21" edge="1">
          <mxGeometry relative="1" as="geometry" />
        </mxCell>
        <mxCell id="xgMd-r7XzJL5BxvF1ZXr-27" style="edgeStyle=orthogonalEdgeStyle;rounded=0;orthogonalLoop=1;jettySize=auto;html=1;exitX=0.5;exitY=1;exitDx=0;exitDy=0;entryX=0.5;entryY=0;entryDx=0;entryDy=0;fontSize=12;startSize=8;endSize=8;" parent="WIyWlLk6GJQsqaUBKTNV-1" source="xgMd-r7XzJL5BxvF1ZXr-15" target="xgMd-r7XzJL5BxvF1ZXr-18" edge="1">
          <mxGeometry relative="1" as="geometry">
            <Array as="points">
              <mxPoint x="880" y="780" />
              <mxPoint x="760" y="780" />
            </Array>
          </mxGeometry>
        </mxCell>
        <mxCell id="xgMd-r7XzJL5BxvF1ZXr-15" value="Retrieve first level of categories under that service catalog" style="shape=process;whiteSpace=wrap;html=1;backgroundOutline=1;fontSize=16;" parent="WIyWlLk6GJQsqaUBKTNV-1" vertex="1">
          <mxGeometry x="760" y="570" width="240" height="80" as="geometry" />
        </mxCell>
        <mxCell id="xgMd-r7XzJL5BxvF1ZXr-18" value="Display Service Catalog Cards" style="shape=process;whiteSpace=wrap;html=1;backgroundOutline=1;fontSize=16;" parent="WIyWlLk6GJQsqaUBKTNV-1" vertex="1">
          <mxGeometry x="670" y="870" width="180" height="60" as="geometry" />
        </mxCell>
        <mxCell id="xgMd-r7XzJL5BxvF1ZXr-24" style="edgeStyle=orthogonalEdgeStyle;rounded=0;orthogonalLoop=1;jettySize=auto;html=1;exitX=1;exitY=0.5;exitDx=0;exitDy=0;entryX=0.5;entryY=0;entryDx=0;entryDy=0;fontSize=12;startSize=8;endSize=8;" parent="WIyWlLk6GJQsqaUBKTNV-1" source="xgMd-r7XzJL5BxvF1ZXr-21" target="xgMd-r7XzJL5BxvF1ZXr-12" edge="1">
          <mxGeometry relative="1" as="geometry">
            <Array as="points">
              <mxPoint x="1290" y="610" />
              <mxPoint x="1290" y="510" />
              <mxPoint x="270" y="510" />
            </Array>
          </mxGeometry>
        </mxCell>
        <mxCell id="xgMd-r7XzJL5BxvF1ZXr-25" value="None" style="edgeLabel;html=1;align=center;verticalAlign=middle;resizable=0;points=[];fontSize=16;" parent="xgMd-r7XzJL5BxvF1ZXr-24" vertex="1" connectable="0">
          <mxGeometry x="0.1103" y="3" relative="1" as="geometry">
            <mxPoint x="524" y="37" as="offset" />
          </mxGeometry>
        </mxCell>
        <mxCell id="xgMd-r7XzJL5BxvF1ZXr-21" value="Does &lt;br&gt;the service catalog &lt;br&gt;contain any&lt;br&gt;categories" style="rhombus;whiteSpace=wrap;html=1;fontSize=16;" parent="WIyWlLk6GJQsqaUBKTNV-1" vertex="1">
          <mxGeometry x="1070" y="530" width="200" height="160" as="geometry" />
        </mxCell>
      </root>
    </mxGraphModel>
  </diagram>
</mxfile>
